<svg width="202" height="202" viewBox="0 0 202 202" fill="none" xmlns="http://www.w3.org/2000/svg">
<path fill-rule="evenodd" clip-rule="evenodd" d="M65.787 45.1498C44.2282 45.1498 26.2451 29.8403 22.1162 9.5H109.458C105.329 29.8403 87.3458 45.1498 65.787 45.1498ZM136.205 156.85C114.646 156.85 96.6634 172.16 92.5345 192.5H179.876C175.747 172.16 157.764 156.85 136.205 156.85Z" fill="white"/>
<path d="M20.5531 181.231C5.86394 166.542 5.86393 142.726 20.553 128.037L128.018 20.5724C142.707 5.88333 166.523 5.88332 181.212 20.5724V20.5724C195.901 35.2616 195.901 59.0773 181.212 73.7664L73.7471 181.231C59.058 195.92 35.2422 195.92 20.5531 181.231V181.231Z" fill="#2FDB83"/>
</svg>
